<svg xmlns="http://www.w3.org/2000/svg" xmlns:xlink="http://www.w3.org/1999/xlink" viewBox="0,0,256,256" width="64px" height="64px" fill-rule="nonzero"><g transform=""><g fill="#efefef" fill-rule="nonzero" stroke="none" stroke-width="1" stroke-linecap="butt" stroke-linejoin="miter" stroke-miterlimit="10" stroke-dasharray="" stroke-dashoffset="0" font-family="none" font-weight="none" font-size="none" text-anchor="none" style="mix-blend-mode: normal"><path d="M64,256c-35.34622,0 -64,-28.65378 -64,-64v-128c0,-35.34622 28.65378,-64 64,-64h128c35.34622,0 64,28.65378 64,64v128c0,35.34622 -28.65378,64 -64,64z" id="shape"></path></g><g fill="#108df4" fill-rule="nonzero" stroke="none" stroke-width="1" stroke-linecap="butt" stroke-linejoin="miter" stroke-miterlimit="10" stroke-dasharray="" stroke-dashoffset="0" font-family="none" font-weight="none" font-size="none" text-anchor="none" style="mix-blend-mode: normal"><g transform="scale(10.66667,10.66667)"><path d="M11.155,18.025c1.326,-1.734 1.836,-2.242 1.836,-3.212c0,-1.326 -1.071,-1.938 -1.938,-2.55c-0.867,-0.612 -2.295,-1.122 -1.836,-1.989c-0.357,-0.255 -0.357,-0.255 -0.357,-0.255l-1.07,1.326c0,0 -0.807,0.868 -0.765,1.887c0.051,1.224 0.566,1.624 1.632,2.346c1.734,1.173 2.55,1.632 2.091,2.142c0.407,0.305 0.152,0.101 0.407,0.305zM14.7,14.999l2.5,-3.281c0,0 0.781,-0.833 0.781,-2.396c0,-1.563 -1.25,-2.5 -1.927,-2.969c-0.677,-0.469 -3.177,-2.188 -3.177,-2.188c0,0 -0.885,-0.469 -0.885,-1.146c0,-0.521 0.208,-0.677 0.208,-0.677l-0.313,-0.26l-2.031,2.709c0,0 -0.781,0.833 -0.781,2.083c0,1.25 0.573,2.24 1.198,2.708c0.625,0.468 3.438,2.396 3.438,2.396c0,0 1.042,0.677 1.042,1.51c0,0.833 -0.208,1.042 -0.365,1.302c0.312,0.209 0.312,0.209 0.312,0.209zM17.5,19h-11c-0.276,0 -0.5,0.224 -0.5,0.5c0,0.276 0.224,0.5 0.5,0.5h2.5l0.311,1.242c0.111,0.446 0.511,0.758 0.97,0.758h3.438c0.459,0 0.859,-0.312 0.97,-0.758l0.311,-1.242h2.5c0.276,0 0.5,-0.224 0.5,-0.5c0,-0.276 -0.224,-0.5 -0.5,-0.5z"></path></g></g></g></svg>